<?xml version="1.0" standalone="no"?>
<!DOCTYPE svg PUBLIC "-//W3C//DTD SVG 20010904//EN"
 "http://www.w3.org/TR/2001/REC-SVG-20010904/DTD/svg10.dtd">
<svg version="1.0" xmlns="http://www.w3.org/2000/svg"
 width="256.000000pt" height="256.000000pt" viewBox="0 0 256.000000 256.000000"
 preserveAspectRatio="xMidYMid meet">
<metadata>
Created by potrace 1.16, written by Peter Selinger 2001-2019
</metadata>
<g transform="translate(0.000000,256.000000) scale(0.100000,-0.100000)"
fill="#db5856" stroke="none">
<path d="M0 1980 l0 -580 578 2 577 3 3 578 2 577 -580 0 -580 0 0 -580z"/>
<path d="M1352 1983 l3 -578 591 -3 591 -2 7 31 c3 17 6 278 6 580 l0 549
-600 0 -600 0 2 -577z"/>
<path d="M0 610 l0 -600 549 0 c302 0 563 3 580 6 l31 7 -2 591 -3 591 -577 3
-578 2 0 -600z"/>
</g>
</svg>
